<svg width="2048" height="2048" viewBox="0 0 2048 2048" fill="none" xmlns="http://www.w3.org/2000/svg">
<g clip-path="url(#clip0_5_4)">
<rect width="2048" height="2048" fill="#FFF8EE"/>
<ellipse cx="1030.7" cy="1529.92" rx="589.239" ry="98.3777" fill="#4D3516"/>
<path d="M1609.94 834.283C1609.94 853.261 1596.69 873.782 1567.64 894.403C1538.91 914.797 1496.71 933.8 1443.68 950.041C1337.75 982.486 1190.83 1003.26 1028.15 1003.26C865.502 1003.26 716.2 981.883 607.875 948.819C553.65 932.267 510.229 912.949 480.588 892.294C450.555 871.367 436.884 850.694 436.884 831.844C436.884 813.104 450.425 793.116 480.402 773.217C510.006 753.565 553.405 735.577 607.656 720.363C716.019 689.975 865.386 671.284 1028.15 671.284C1190.9 671.284 1337.85 690.58 1443.8 721.552C1496.84 737.058 1539.04 755.328 1567.75 775.17C1596.76 795.224 1609.94 815.365 1609.94 834.283Z" fill="#F2DB3F" stroke="#4D3516" stroke-width="20"/>
<mask id="path-3-inside-1_5_4" fill="white">
<path d="M426.767 830.673C426.766 831.064 426.766 831.456 426.766 831.847C378.75 1207.09 647.644 1587.2 1026.98 1587.2C1406.31 1587.2 1646.53 1168.09 1617.58 831.847C1617.55 831.455 1617.51 831.064 1617.48 830.673H1607.85C1607.94 831.873 1607.98 833.077 1607.98 834.283C1607.98 929.828 1345.7 1007.28 1022.17 1007.28C698.643 1007.28 436.37 929.828 436.37 834.283C436.37 833.077 436.412 831.873 436.495 830.673H426.767Z"/>
</mask>
<path d="M426.767 830.673C426.766 831.064 426.766 831.456 426.766 831.847C378.75 1207.09 647.644 1587.2 1026.98 1587.2C1406.31 1587.2 1646.53 1168.09 1617.58 831.847C1617.55 831.455 1617.51 831.064 1617.48 830.673H1607.85C1607.94 831.873 1607.98 833.077 1607.98 834.283C1607.98 929.828 1345.7 1007.28 1022.17 1007.28C698.643 1007.28 436.37 929.828 436.37 834.283C436.37 833.077 436.412 831.873 436.495 830.673H426.767Z" fill="#637531"/>
<path d="M426.767 830.673V810.673H406.786L406.767 830.654L426.767 830.673ZM426.766 831.847L446.604 834.385L446.766 833.121V831.847H426.766ZM1617.58 831.847L1597.66 833.562L1597.66 833.562L1617.58 831.847ZM1617.48 830.673L1637.41 828.946L1635.82 810.673H1617.48V830.673ZM1607.85 830.673V810.673H1586.42L1587.9 832.055L1607.85 830.673ZM436.495 830.673L456.447 832.056L457.929 810.673H436.495V830.673ZM406.767 830.654C406.766 831.051 406.766 831.449 406.766 831.847H446.766C446.766 831.462 446.766 831.077 446.767 830.692L406.767 830.654ZM406.928 829.308C357.742 1213.68 632.912 1607.2 1026.98 1607.2V1567.2C662.375 1567.2 399.757 1200.49 446.604 834.385L406.928 829.308ZM1026.98 1607.2C1224.72 1607.2 1385.13 1497.82 1491.71 1347.16C1598.14 1196.72 1652.41 1003.23 1637.51 830.131L1597.66 833.562C1611.7 996.707 1560.34 1180.89 1459.06 1324.06C1357.93 1467.02 1208.56 1567.2 1026.98 1567.2V1607.2ZM1637.51 830.132C1637.47 829.736 1637.44 829.341 1637.41 828.946L1597.55 832.4C1597.59 832.787 1597.62 833.175 1597.66 833.562L1637.51 830.132ZM1617.48 810.673H1607.85V850.673H1617.48V810.673ZM1627.98 834.283C1627.98 832.613 1627.92 830.949 1627.81 829.291L1587.9 832.055C1587.95 832.798 1587.98 833.541 1587.98 834.283H1627.98ZM1022.17 1027.28C1185.3 1027.28 1333.75 1007.78 1442.06 975.794C1496.09 959.838 1541.27 940.449 1573.39 918.021C1604.94 895.993 1627.98 868.011 1627.98 834.283H1587.98C1587.98 848.328 1578.23 865.857 1550.49 885.224C1523.33 904.191 1482.72 922.08 1430.74 937.432C1327.03 968.058 1182.58 987.283 1022.17 987.283V1027.28ZM416.37 834.283C416.37 868.011 439.407 895.993 470.956 918.021C503.078 940.449 548.256 959.838 602.283 975.794C710.598 1007.78 859.046 1027.28 1022.17 1027.28V987.283C861.771 987.283 717.317 968.058 613.612 937.432C561.63 922.08 521.019 904.191 493.855 885.224C466.117 865.857 456.37 848.328 456.37 834.283H416.37ZM416.543 829.29C416.428 830.95 416.37 832.614 416.37 834.283H456.37C456.37 833.539 456.395 832.797 456.447 832.056L416.543 829.29ZM436.495 810.673H426.767V850.673H436.495V810.673Z" fill="#4D3516" mask="url(#path-3-inside-1_5_4)"/>
<path d="M1597.16 796.305C1621.16 780.717 1683.55 758.895 1741.15 796.305C1813.14 843.067 1829.97 1015.35 1757.98 1105.95C1685.98 1196.55 1630.99 1228.02 1527.03 1251.04C1531.04 1239.46 1536.09 1225.83 1541.74 1210.58C1543.52 1205.76 1545.37 1200.78 1547.26 1195.65C1608.02 1167.57 1694.61 1107.21 1716.58 1062.99C1752.97 989.771 1742.45 889.094 1716.58 865.548C1685.32 837.087 1630.21 832.504 1610.85 840.565C1607.75 825.104 1603.26 810.278 1597.16 796.305Z" fill="#637531" stroke="#4D3516" stroke-width="20"/>
<path fill-rule="evenodd" clip-rule="evenodd" d="M909.029 985.88H877.847V1166.45L807.825 1200.69V1338.79L889.186 1349.34H976.118V1207.41L909.029 1167.4V985.88Z" fill="#523916"/>
<rect x="457.948" y="866.224" width="108.147" height="25.215" fill="#4D3516"/>
<rect x="1110.51" y="960.116" width="89.388" height="19.6404" fill="#4D3516"/>
<rect x="847.277" y="695.438" width="89.388" height="19.6404" fill="#4D3516"/>
<rect x="1491.75" y="792.705" width="114.269" height="27.1225" fill="#4D3516"/>
<path d="M1016.05 819.113L1054.33 862.574L692.938 809.236L1016.05 819.113Z" fill="#523916"/>
<path d="M1016.05 819.113L1054.33 862.574L1245.73 728.901L1016.05 819.113Z" fill="#523916"/>
<path d="M928.706 520.486C935.985 562.425 989.337 606.242 1019.65 632.427C1016.11 607.04 1002.64 552.994 1001.39 532.081C999.915 507.566 1028.38 465.835 1048.11 444.746C1066.07 424.73 1125.15 389.87 1159.05 346.093C1199.6 293.719 1203.42 308.889 1213.46 235.108C1218.22 200.131 1208.07 130.882 1203.42 101.604C1201.62 90.2455 1178.82 37.3085 1157.67 12.8886C1148.19 1.93396 1139.67 -0.981195 1132.36 0.26985C1153.6 10.7659 1139.54 125.519 1132.36 147.027C1126.36 164.99 1087.08 216.623 1063.04 247.733C1023.35 293.972 955.749 381.203 943.748 394.398C934.668 404.381 931.36 407.217 923.038 440.841C923.039 465.721 921.358 478.147 928.706 520.486Z" fill="#4D3516"/>
<path d="M347.65 1941.63L322.65 1759.63H354.775L366.9 1861.38L367.775 1868.5L368.9 1861L383.275 1759.63H408.4L423.65 1861.75L424.775 1869.25L425.65 1861.63L438.025 1759.63H470.275L445.025 1941.63H413.275L397.4 1843.38L396.025 1834.13L394.65 1843.38L379.4 1941.63H347.65ZM522.875 1759.63H628.125V1788H592.625V1913.38H628.125V1941.63H522.875V1913.38H557.5V1788H522.875V1759.63ZM788.975 1894.13C788.975 1890.88 788.392 1887.83 787.225 1885C786.142 1882.17 784.267 1879.5 781.6 1877C778.85 1874.58 775.267 1872.38 770.85 1870.38C766.517 1868.29 761.1 1866.38 754.6 1864.63C744.517 1861.88 735.642 1858.54 727.975 1854.63C720.392 1850.71 714.183 1846.42 709.35 1841.75C704.517 1837.08 700.85 1831.92 698.35 1826.25C695.933 1820.58 694.725 1814.42 694.725 1807.75C694.725 1800.08 696.35 1793.13 699.6 1786.88C702.85 1780.63 707.35 1775.29 713.1 1770.88C718.85 1766.46 725.642 1763.08 733.475 1760.75C741.308 1758.33 749.808 1757.13 758.975 1757.13C768.475 1757.13 777.142 1758.5 784.975 1761.25C792.892 1764 799.683 1767.83 805.35 1772.75C811.017 1777.75 815.433 1783.67 818.6 1790.5C821.767 1797.33 823.35 1804.83 823.35 1813H789.1C788.933 1808.92 788.183 1805.17 786.85 1801.75C785.6 1798.33 783.725 1795.38 781.225 1792.88C778.642 1790.46 775.433 1788.58 771.6 1787.25C767.85 1785.83 763.433 1785.13 758.35 1785.13C753.683 1785.13 749.517 1785.71 745.85 1786.88C742.267 1787.96 739.225 1789.5 736.725 1791.5C734.225 1793.58 732.308 1796.04 730.975 1798.88C729.725 1801.63 729.1 1804.63 729.1 1807.88C729.1 1811.29 729.933 1814.38 731.6 1817.13C733.35 1819.88 735.85 1822.33 739.1 1824.5C742.35 1826.75 746.267 1828.79 750.85 1830.63C755.517 1832.46 760.767 1834.17 766.6 1835.75C772.85 1837.5 778.808 1839.63 784.475 1842.13C790.142 1844.63 795.35 1847.5 800.1 1850.75C807.267 1856.08 812.975 1862.29 817.225 1869.38C821.475 1876.46 823.6 1884.63 823.6 1893.88C823.6 1901.88 821.975 1909 818.725 1915.25C815.558 1921.42 811.142 1926.63 805.475 1930.88C799.808 1935.21 793.058 1938.5 785.225 1940.75C777.392 1942.92 768.85 1944 759.6 1944C750.517 1944 741.517 1942.67 732.6 1940C723.767 1937.25 716.058 1933.25 709.475 1928C703.225 1922.83 698.267 1916.75 694.6 1909.75C691.017 1902.75 689.225 1894.54 689.225 1885.13H723.725C723.892 1890.63 724.85 1895.33 726.6 1899.25C728.35 1903.17 730.808 1906.38 733.975 1908.88C737.058 1911.38 740.767 1913.21 745.1 1914.38C749.517 1915.54 754.35 1916.13 759.6 1916.13C764.267 1916.13 768.392 1915.58 771.975 1914.5C775.642 1913.42 778.725 1911.92 781.225 1910C783.725 1908.08 785.642 1905.79 786.975 1903.13C788.308 1900.38 788.975 1897.38 788.975 1894.13ZM985.825 1861.88H911.075V1913.25H998.45V1941.63H875.825V1759.63H998.075V1788.25H911.075V1834.13H985.825V1861.88ZM1186.93 1788.25H1130.8V1941.63H1095.55V1788.25H1040.18V1759.63H1186.93V1788.25ZM1240.28 1759.63H1345.53V1788H1310.03V1913.38H1345.53V1941.63H1240.28V1913.38H1274.9V1788H1240.28V1759.63ZM1455 1759.63L1472.25 1828L1491.88 1759.63H1535.5V1941.63H1503.25V1887.75L1504.75 1802.63L1480.88 1881.63H1463.5L1442.12 1806L1443.62 1887.75V1941.63H1411.38V1759.63H1455ZM1703.22 1861.88H1628.47V1913.25H1715.85V1941.63H1593.22V1759.63H1715.47V1788.25H1628.47V1834.13H1703.22V1861.88Z" fill="black"/>
</g>
<defs>
<clipPath id="clip0_5_4">
<rect width="2048" height="2048" fill="white"/>
</clipPath>
</defs>
</svg>
